The Devil Within 2010 DVDRip Xvid BigPerm LKRG


Plot:

A night of sex, drugs and partying in the Hollywood Hill's is the perfect setting for Serina's 18th birthday - until this high school pool party goes horribly wrong when an uninvited guest begins killing everyone. 


Cast:

Elizabeth Di Prinzio....................Sirena
Sarah Kathryn Harrison..................Doug
Bill Oberst Jr..........................Principal Edwards
Grey Damon..............................John
Elizabeth Bell..........................Karen
Alex Aldridge...........................Kyle
Jamie Lea Willett.......................Sarah
Peyten Aldridge.........................Rachel
Jennifer Erin Bailey....................Lisa
David Mingrino..........................Jack
Kurt Jenko..............................Kid #1
Maurice Webster.........................Big Guy #1
Brian McLaughlin........................Brent
Brooke Krohn............................Girl #1
R.J. Frost..............................Drunk in the ally



General:

Complete name : The Devil Within 2010 DVDRip BigPerm LKRG\TDWLKRG.avi
Format : AVI
Format/Info : Audio Video Interleave
File size : 673 MiB
Duration : 1h 18mn
Overall bit rate : 1 204 Kbps

Video:

ID : 0
Format : MPEG-4 Visual
Format profile : Advanced Simple@L5
Format settings, BVOP : Yes
Format settings, QPel : No
Format settings, GMC : No warppoints
Format settings, Matrix : Default (H.263)
Codec ID : XVID
Codec ID/Hint : XviD
Duration : 1h 18mn
Bit rate : 1 007 Kbps
Width : 700 pixels
Height : 392 pixels
Display aspect ratio : 16:9
Frame rate : 23.976 fps
Resolution : 8 bits
Colorimetry : 4:2:0
Scan type : Progressive
Bits/(Pixel*Frame) : 0.153
Stream size : 563 MiB (84%)
Writing library : XviD 1.2.1 (UTC 2008-12-04)

Audio:

ID : 1
Format : AC-3
Format/Info : Audio Coding 3
Codec ID : 2000
Duration : 1h 18mn
Bit rate mode : Constant
Bit rate : 192 Kbps
Channel(s) : 2 channels
Channel positions : Front: L R
Sampling rate : 48.0 KHz
Resolution : 16 bits
Video delay : 42ms
Stream size : 107 MiB (16%)
Alignment : Split accross interleaves
Language : English